<svg width="272" height="116" viewBox="0 0 272 116" xmlns="http://www.w3.org/2000/svg"><title>Group 9</title><g fill="none" fill-rule="evenodd"><path d="M90.834 1.15L63.432 2.17a2.259 2.259 0 0 0-1.686-.759c-.927 0-1.76.568-2.1 1.431L23.895 19.33a2.259 2.259 0 0 0-3.12 1.987L10.607 32.2 8.57 34.128a2.259 2.259 0 0 0-2.723 2.21c.001.613.252 1.2.694 1.625L1.12 57.378A2.259 2.259 0 0 0 0 59.326c0 1.086.775 2.018 1.843 2.218l8.136 19.758a2.259 2.259 0 0 0 .16 3.013 2.259 2.259 0 0 0 3.387-.225l19.164 4.37a2.259 2.259 0 0 0 2.236 1.96c.715 0 1.387-.34 1.812-.914l13.896 3.86a2.259 2.259 0 0 0 4.296-.97c0-.076 6.188-5.654 6.188-5.654a2.259 2.259 0 0 0 2.874-.704l7.478 2.537a2.259 2.259 0 0 0 2.655 1.59l14.638 15.148c-.024.13-.036.261-.037.393a2.259 2.259 0 0 0 2.259 2.259c.156-.001 1.165-.047 1.626-.441l6.995 1.347c.141.493.47 1.461 1.56 1.846.662.233 1.754.066 2.473-.796l5.122 1.89c-.1.942.484 2.534 2.298 2.534 2.046 0 2.35-1.79 2.35-2.388a2.259 2.259 0 0 0-3.079-2.104l-3.952-8.346a2.216 2.216 0 0 0 .32-1.732l2.547-3.82a2.259 2.259 0 0 0 2.566-.884l8.144.608a2.259 2.259 0 0 0 4.343-.864c0-.066 4.56-7.45 4.56-7.45a2.258 2.258 0 0 0 1.327-.736h4.3c.354.83 1.17 1.37 2.073 1.37a2.259 2.259 0 0 0 2.259-2.258 2.262 2.262 0 0 0-.75-1.678l7.82-11.81a2.259 2.259 0 0 0 2.004-2.24 2.259 2.259 0 0 0-1.704-2.187l-2.238-14.62a2.259 2.259 0 0 0-1.14-4.206c-.084.001-15.228-26.187-15.228-26.187.226-.359.346-.774.347-1.197a2.259 2.259 0 0 0-2.259-2.259c-.403.001-.798.11-1.145.315L95.004 1.776a2.257 2.257 0 1 0-4.17-.627zm-.212 1.702a2.259 2.259 0 0 0 1.906 1.646L95.93 19.5 63.981 3.972c.007-.043.011-.085.015-.128l26.626-.992zm4.033.694l27.52 16.684-22.32.16a2.259 2.259 0 0 0-2.013-1.233c-.083 0-.167.006-.25.016L94.166 4.056c.189-.143.355-.315.49-.51zM59.724 4.672c.126.255.3.483.51.673L48.518 23.499a2.259 2.259 0 0 0-2.689 1.112l-20.59-3.654a2.259 2.259 0 0 0-.097-.338L59.724 4.672zm3.479.805l29.846 14.507-23.952 2.629-5.894-17.136zm-1.53.762l5.697 16.563-17.482 1.92a2.258 2.258 0 0 0-.061-.128L61.673 6.239zm33.561 15.21L73.677 34.453a2.259 2.259 0 0 0-.605-.281l-3.41-9.918 25.572-2.807zm28.2.466c.057.428.236.832.516 1.161l-4.554 11.927-19.402-12.906.004-.015 23.435-.168zm-98.501.71l20.74 3.68c.07.23.176.448.315.645l-16.71 17.222a2.259 2.259 0 0 0-.2-.015c-.143 0-.285.015-.425.043-.124-.646-.24-1.257-.41-2.111-.492-2.48-1.148-5.708-1.803-8.91a3955.69 3955.69 0 0 0-2.054-9.965c.216-.164.402-.365.547-.594v.004zm70.744.534L85.613 53.705a2.259 2.259 0 0 0-.632.26L74.054 37.906c.408-.42.637-.983.638-1.569a2.259 2.259 0 0 0-.056-.484l21.04-12.694zm3.226.247l19.873 13.22-5.958 15.604h-.054c-.28 0-.556.052-.816.153L98.868 23.43l.035-.02v-.004zm-76.67.12c.166.062.338.105.514.127a4086.27 4086.27 0 0 1 2.033 9.87c.655 3.2 1.31 6.426 1.802 8.899.14.705.228 1.172.337 1.737l-16.588-8.211a2.259 2.259 0 0 0-.25-.703l1.728-1.85 10.425-9.87zm103.968.283l14.492 25.361-19.851-13.205 4.62-12.1c.069.008.138.013.208.015.178 0 .357-.023.53-.065v-.006zm-28.983.083l13.435 29.735-22.389 1.492a2.259 2.259 0 0 0-.954-1.154l9.908-30.073zm-29.283.552l3.41 9.916c-.25.138-.473.322-.655.543l-20.078-8.558 17.323-1.901zm-18.858 3.088l21.037 8.966-11.78 6.561a2.259 2.259 0 0 0-1.428-.511 2.259 2.259 0 0 0-.16 0L49.072 27.53h.005v.002zm-1.697.415l7.846 15.354c-.371.414-.577.95-.578 1.505 0 .502.168.99.476 1.386L44.133 63.728a2.259 2.259 0 0 0-.132 0c-.298 0-.593.06-.868.175l-12.357-15.99a2.259 2.259 0 0 0 .058-2.906L47.38 27.954v-.007zm72.842 9.64l20.19 13.43-25.953 1.664 5.763-15.094zm-110.278.06l16.225 8.03L3.656 57.554c-.215-.17-.459-.3-.72-.383l5.188-18.576c.724-.007 1.4-.36 1.82-.949zm60.962.349a2.259 2.259 0 0 0 1.568.6l11.46 16.844a2.259 2.259 0 0 0 .02 1l-7.7 11.72a2.258 2.258 0 0 0-.556.073l-16.884-22.22c.228-.361.35-.778.35-1.205a2.258 2.258 0 0 0-.017-.26l11.759-6.55v-.002zm-13.469 9.003L74.34 69.242l-.046.075L46.18 65.39a2.259 2.259 0 0 0-.51-.926l10.922-17.422c.104.015.21.024.314.025.18-.001.358-.024.531-.067zm-30.56.22L18.64 65.204a2.26 2.26 0 0 0-.986.54l-13.14-6.49a2.259 2.259 0 0 0-.02-.228L26.877 47.22zm1.138 1.581l4.157 27.884L21.22 68.39a2.26 2.26 0 0 0 .236-.999 2.259 2.259 0 0 0-1.075-1.92l7.634-16.67zm1.81.644L41.92 65.098a2.259 2.259 0 0 0 1.736 3.11l7.792 22.288c-.18.117-.344.26-.484.422L34.102 78.147l-4.278-28.703zm111.127 3.237l-4.922 12.45-21.014-10.507a2.258 2.258 0 0 0 .001-.28l25.935-1.662v-.001zm1.376 1.126l2.18 14.25a2.259 2.259 0 0 0-.862.882l-6.096-3.048 4.778-12.084zm-31.926 1.534L107.4 74.522 88.193 56.845l.012-.023 22.197-1.48v-.001zm1.52 1.239a2.25 2.25 0 0 0 1.496.066l12.303 16.261-16.013 2.555a2.258 2.258 0 0 0-.669-.455l2.884-18.426v-.001zm3.784.283l19.698 9.849-1.962 4.962-5.827.93-11.909-15.741zm-28.753 1.142l19.317 17.78a2.259 2.259 0 0 0-.4 1.354l-15.398 9.338a2.259 2.259 0 0 0-.958-.506l-3.055-27.84c.17-.024.335-.066.495-.127l-.001.001zm-2.182.279L87.747 85.4 78.16 71.64a2.248 2.248 0 0 0-.307-2.828l6.918-10.528zM3.92 60.85l13.023 6.433a2.259 2.259 0 0 0-.006.108c.001.539.195 1.06.546 1.468l-5.88 11.603c-.044.004-.089.01-.133.017L3.529 61.192c.143-.098.274-.212.392-.34v-.002zm42.056 6.22l27.849 3.892-10.89 11.657a2.259 2.259 0 0 0-.787-.145 2.25 2.25 0 0 0-1.49.566L45.972 67.076h.005v-.006zm90.948.402l5.528 2.764-7.066 1.128 1.538-3.892zm-91.021 2.03L59.892 84.71l-.001.023c0 .246.042.49.122.723l-5.924 5.184a2.259 2.259 0 0 0-.953-.454l-7.232-20.684zm-25.986.027l12.61 9.55 1.082 7.251c-.19.136-.358.301-.497.489l-19.136-4.365a2.259 2.259 0 0 0-.755-1.435l5.766-11.38c.07.009.14.014.21.016.245 0 .488-.042.72-.121v-.005zm124.202 2.157l.07.064-7.774 11.74c-.169.01-.336.04-.498.088l-3.52-4.652 2.265-5.73 9.457-1.51zm-69.382.781l-2.206 13.53a2.256 2.256 0 0 0-.857.858l-7.296-2.476a2.259 2.259 0 0 0-.193-.617l10.552-11.295zm2.036.147l10.053 14.43-10.986.407a2.259 2.259 0 0 0-1.56-1.656l2.14-13.126c.12-.009.237-.027.353-.054v-.001zm55.945.892l-1.518 3.838-2.427-3.209 3.945-.63zm-5.84.932l3.593 4.75-1.481 3.748a2.259 2.259 0 0 0-2.213.733l-15.006-6.82 15.107-2.41v-.001zm-16.086 3.826l15.446 7.02c.044.653.368 1.255.89 1.65l-3.8 6.028a2.259 2.259 0 0 0-1.644-.375l-10.892-14.323zm-4.228.436c.264.253.586.438.937.54l1.155 12.712a2.259 2.259 0 0 0-.975 1.856c0 .365.09.725.26 1.048l-2.306 3.458a2.259 2.259 0 0 0-1.14-.312c-.454 0-.898.139-1.273.396l-12.132-9.47a2.259 2.259 0 0 0 .13-.924l15.344-9.304zm2.681.329l10.982 14.442a2.258 2.258 0 0 0-.284.51l-7.783-.582a2.259 2.259 0 0 0-1.836-1.814l-1.138-12.523c.02-.01.04-.022.06-.034zM34.46 80.542l13.703 10.38-11-3.056a2.259 2.259 0 0 0-1.9-1.935l-.803-5.389zm97.21.227l2.924 3.864a2.258 2.258 0 0 0-.141.302h-3.711a2.258 2.258 0 0 0-.33-.987l1.258-3.18zM86.787 88.74a2.259 2.259 0 0 0 1.865 1.655l.865 13.259-13.98-14.468.019-.03 11.231-.417v.001zm3.57 1.764l11.926 9.308a2.259 2.259 0 0 0-.04.61l-9.578 3.777a2.259 2.259 0 0 0-1.463-.742l-.845-12.954zm12.639 11.442c.083.075.172.143.265.204l-1.547 4.126a2.258 2.258 0 0 0-1.675.94l-6.813-1.238a2.3 2.3 0 0 0 .013-.185l9.756-3.847zm1.963.523l3.532 7.455-4.37-1.615a2.259 2.259 0 0 0-.794-1.51l1.623-4.328h.01v-.002z" fill="#ff7300"/><path d="M29.255 38C15.032 38 5 48.065 5 61.958c0 13.893 10.032 23.958 24.255 23.958 8.448 0 15.411-3.762 19.503-9.768l-7.524-5.412c-2.772 4.026-6.93 6.336-12.045 6.336-8.151 0-14.553-5.841-14.586-15.114 0-8.976 6.204-15.114 14.586-15.114 5.148 0 9.339 2.376 11.946 6.369l7.92-4.851C45.293 41.894 37.769 38 29.255 38zm30.72.858v46.2h9.206V66.677h2.706l13.464 18.381h11.154L82.282 66.545c8.877-.858 14.157-6.039 14.157-13.629 0-8.844-5.907-14.058-16.929-14.058H59.974zm19.37 8.481c4.884 0 7.623 1.749 7.623 5.577 0 3.894-2.607 5.742-7.623 5.742H69.181V47.339h10.164zm64.933.512l-1.1-3.793-9.881 25.985-12.012-31.185h-13.497v46.2h9.207V50.441l11.418 30.162h9.735l6.13-16.35V47.85zM209.798 38h-9.24v27.291c0 7.59-4.29 10.923-10.659 10.923-6.369 0-10.659-3.333-10.659-10.923V38H170v27.753c0 12.771 8.151 19.272 19.899 19.272 11.748 0 19.899-6.501 19.899-19.272V38zm61.884 0h-13.497l-11.979 31.185L234.194 38h-13.497v46.2h9.207V49.583l11.418 30.162h9.735l11.418-30.426V84.2h9.207V38zM158.834 53.005h-8.613v31.977h8.613V53.005zM154.478 37c-3.102 0-5.478 2.442-5.478 5.544 0 3.102 2.376 5.478 5.478 5.478s5.511-2.376 5.511-5.478S157.58 37 154.478 37z" fill="#fff"/></g></svg>