<?xml version="1.0" encoding="UTF-8"?>
<svg width="272px" height="116px" viewBox="0 0 272 116" version="1.1" xmlns="http://www.w3.org/2000/svg" xmlns:xlink="http://www.w3.org/1999/xlink">
    <!-- Generator: Sketch 40 (33762) - http://www.bohemiancoding.com/sketch -->
    <title>Group 9</title>
    <desc>Created with Sketch.</desc>
    <defs></defs>
    <g id="Page-1" stroke="none" stroke-width="1" fill="none" fill-rule="evenodd">
        <g id="Group-9">
            <path d="M90.834193,1.14911512 L63.4316327,2.17030429 C63.0038265,1.68830937 62.3904866,1.41203409 61.7460207,1.41103055 C60.8186106,1.4118224 59.9859469,1.97948102 59.6463296,2.84247009 L23.8945844,19.3297497 C23.6202261,19.2156315 23.3260451,19.1567748 23.0288996,19.1565526 C21.8208671,19.1580699 20.8279159,20.1099265 20.7753703,21.3168167 L10.6065872,32.2013508 L8.57138984,34.1279303 C8.41855345,34.095631 8.26277843,34.0792754 8.10656645,34.0791262 C7.50755611,34.0791274 6.93308167,34.3170916 6.50952798,34.7406664 C6.08597429,35.1642413 5.84803881,35.7387276 5.84806753,36.337738 C5.8490402,36.9513708 6.09965886,37.5381926 6.54227125,37.9632108 L1.11988047,57.3782938 C0.427281777,57.782608 0.00103628717,58.5238837 0,59.3258574 C0.000739522786,60.4122798 0.774889672,61.3442319 1.84274569,61.5442264 L9.97855056,81.3021705 C9.65516231,81.7030536 9.47851189,82.20243 9.47789263,82.7174899 C9.47785955,83.316503 9.71579304,83.8909935 10.1393471,84.3145719 C10.5629011,84.7381503 11.137378,84.9761168 11.7363911,84.9761182 C12.4382896,84.9748878 13.0997202,84.6473913 13.5262056,84.0899209 L32.6898537,88.460272 C32.8392517,89.581546 33.7951191,90.4193509 34.9263015,90.4204886 C35.6408646,90.4195638 36.312839,90.0805383 36.7381815,89.5063562 L50.6338228,93.3659896 C51.0076529,94.152808 51.8006599,94.6544947 52.6717693,94.6552727 C53.9190896,94.6552708 54.9302475,93.6441291 54.9302694,92.3968088 C54.9292034,92.3204712 61.1175403,86.7416112 61.1175403,86.7416112 C61.4364383,86.9059597 61.7899001,86.9919747 62.1486563,86.9925334 C62.8814712,86.9919939 63.568472,86.6359388 63.9914028,86.0374845 L71.4699469,88.5751342 C71.7450699,89.5474107 72.6325265,90.2186353 73.6429789,90.2186991 C73.8052827,90.2180121 73.9670395,90.1998315 74.1254463,90.1644723 L88.7632651,105.312974 C88.7394909,105.442665 88.7271194,105.574188 88.7262923,105.706037 C88.7263141,106.953357 89.7374721,107.964499 90.9847923,107.964501 C91.1410788,107.963649 92.1495883,107.918287 92.6110711,107.523654 L99.6056399,108.871147 C99.7472589,109.364306 100.076722,110.332376 101.166617,110.716814 C101.827829,110.950043 102.920026,110.783001 103.638747,109.920949 L108.760724,111.810237 C108.661802,112.752735 109.244595,114.345124 111.058701,114.345124 C113.104786,114.345124 113.408804,112.55592 113.408771,111.956907 C113.408749,110.709588 112.397592,109.698446 111.150272,109.698443 C110.869747,109.698565 110.591699,109.750946 110.33036,109.852908 L106.377969,101.507404 C106.622884,101.137951 106.753668,100.704596 106.754027,100.261338 C106.75311,100.097719 106.734415,99.9346837 106.698272,99.775104 L109.244598,95.9555656 C109.469189,96.0283824 109.70381,96.0655326 109.93991,96.0656624 C110.689953,96.0654397 111.390955,95.6928756 111.810786,95.0713402 L119.954842,95.6791732 C120.303865,96.5226263 121.126296,97.0730572 122.03911,97.0741165 C123.28643,97.0741137 124.297587,96.0629722 124.297608,94.8156526 C124.297121,94.7488169 128.858856,87.3642334 128.858856,87.3642334 C129.372469,87.2791771 129.840926,87.0192927 130.184957,86.6285566 L134.48417,86.6285566 C134.839091,87.4594079 135.655016,87.9987932 136.558499,87.9998372 C137.805819,87.9998344 138.816976,86.9886929 138.816998,85.7413733 C138.816049,85.1009699 138.543273,84.4910769 138.06655,84.0634648 L145.886399,72.2538544 C147.027307,72.1249111 147.889902,71.1604867 147.891264,70.0123158 C147.889829,68.979586 147.188077,68.0793838 146.186915,67.8259899 L143.948811,53.2058704 C144.641194,52.8014146 145.06721,52.0601654 145.06813,51.2583068 C145.068108,50.0109866 144.05695,48.9998448 142.809629,48.9998429 C142.724813,49.0011002 127.581279,22.8125232 127.581279,22.8125232 C127.806593,22.4540076 127.926582,22.0393719 127.927552,21.615935 C127.927521,20.368616 126.916358,19.3574821 125.669039,19.3574875 C125.266227,19.3584839 124.871012,19.4671933 124.524357,19.672348 L95.0033644,1.77602619 C94.7768576,0.740207109 93.8602944,0.00140958659 92.7999998,2.84217094e-14 C91.9856583,3.99559603e-06 91.2342668,0.439298046 90.834193,1.14911512 Z M90.6218951,2.8523788 C90.8641169,3.73688547 91.6171457,4.38710848 92.5275102,4.49783343 L95.9301579,19.5005641 L63.9813758,3.97222788 C63.9875344,3.92948961 63.9924662,3.88658351 63.9961649,3.84356248 L90.6223536,2.85163935 L90.6218951,2.8523788 Z M94.6553467,3.54556159 L122.175333,20.2295201 L99.8544197,20.3905573 C99.4690493,19.6334286 98.6913976,19.1566093 97.8418365,19.1565361 C97.758521,19.1574122 97.6753178,19.162898 97.5926085,19.1729685 L94.1645975,4.05593434 C94.3539727,3.91275854 94.5195893,3.74061933 94.6553467,3.54585737 L94.6553467,3.54556159 Z M59.7235288,4.67249302 C59.8501315,4.92668983 60.0235381,5.1547302 60.2346574,5.34465881 L48.517019,23.4988044 C48.2954848,23.4277309 48.0642988,23.3913144 47.8316432,23.3908438 C46.9885076,23.3917522 46.2160799,23.8622244 45.8284347,24.6109631 L25.2377822,20.9574409 C25.214496,20.8422633 25.1822564,20.7290786 25.1413571,20.6189178 L59.7235896,4.67204934 L59.7235288,4.67249302 Z M63.2028137,5.47702149 L93.0485771,19.983577 L69.0966388,22.6126399 L63.2028137,5.47702149 L63.2028137,5.47702149 Z M61.6732434,6.23910517 L67.3702252,22.8023844 L49.887782,24.7211421 C49.8687032,24.678119 49.8482842,24.6357028 49.826555,24.5939556 L61.6732138,6.2392695 L61.6732434,6.23910517 Z M95.2342983,21.4481441 L73.6770531,34.4537347 C73.4904536,34.3305996 73.2866054,34.2358528 73.0721762,34.1725934 L69.6612597,24.2546766 L95.2342983,21.4481441 L95.2342983,21.4481441 Z M123.433611,21.9145932 C123.490848,22.3432991 123.669978,22.7465552 123.949709,23.0764269 L119.395767,35.0030029 L99.9939124,22.097091 C99.9954081,22.0921664 99.996887,22.0872366 99.9983491,22.0823019 L123.433094,21.9135579 L123.433611,21.9145932 Z M24.9328583,22.6241755 L45.6729418,26.3047618 C45.7429977,26.5352395 45.8494747,26.7530254 45.9883364,26.9498635 L29.2778429,44.1715546 C29.2115578,44.1636776 29.1449562,44.158743 29.078234,44.1567655 C28.9354871,44.1575943 28.7931403,44.1719547 28.6531041,44.199654 C28.5288755,43.5538128 28.4124111,42.9425782 28.2428669,42.0885062 C27.7506979,39.608649 27.0953605,36.3810701 26.4398161,33.1790599 C25.5835076,28.9962349 24.876985,25.5821651 24.3858808,23.21367 C24.6023359,23.0503758 24.7876181,22.8494391 24.9328583,22.6204782 L24.9328583,22.6241755 Z M95.6765079,23.1590982 L85.6125074,53.7050856 C85.3901085,53.759192 85.1772265,53.8467912 84.9811563,53.9648813 L74.054207,37.9061248 C74.4622668,37.4857635 74.6910174,36.9232878 74.6921672,36.3374422 C74.6911456,36.1743069 74.6724515,36.0117625 74.6364122,35.8526546 L95.676434,23.1590982 L95.6765079,23.1590982 Z M98.9032702,23.4060766 L118.775998,36.6258302 L112.81821,52.2301167 C112.80002,52.229897 112.781828,52.229897 112.763638,52.2301167 C112.484693,52.230258 112.208188,52.2820726 111.948118,52.3829377 L98.8674361,23.4299528 C98.8794289,23.4231606 98.8913593,23.4162587 98.9032258,23.409248 L98.9032702,23.4060766 Z M22.233805,23.5258685 C22.3991689,23.5881791 22.5712745,23.6308666 22.74659,23.653055 C23.2412583,26.0397406 23.9394694,29.4160982 24.780131,33.5223155 C25.4353205,36.7226989 26.0906432,39.9485032 26.5815255,42.4218531 C26.7214306,43.1269986 26.809605,43.594335 26.9189854,44.1586881 L10.3308867,35.9478966 C10.286945,35.7014813 10.2023468,35.4640845 10.0805512,35.2454131 L11.8091683,33.3955727 L22.233805,23.5255727 L22.233805,23.5258685 Z M126.200502,23.8093761 L140.692752,49.1700822 L120.841513,35.9653478 L125.461636,23.8649832 C125.530663,23.8731089 125.600029,23.8780438 125.669512,23.8797723 C125.848462,23.8791945 126.026708,23.8573506 126.200502,23.8147001 L126.200502,23.8093761 Z M97.2182053,23.8921952 L110.652883,53.6265389 L88.2641468,55.1191726 C88.0866165,54.63692 87.7499312,54.22963 87.3096829,53.9645526 L97.2182053,23.8921952 L97.2182053,23.8921952 Z M67.9348609,24.4435338 L71.3457774,34.3604153 C71.0948394,34.4980617 70.872351,34.6821503 70.6901573,34.9028805 L50.6117558,26.3446924 L67.9348609,24.4435338 L67.9348609,24.4435338 Z M49.0766855,27.5319635 L70.1139565,36.4980521 L58.3345587,43.0591166 C57.9316799,42.7292083 57.4271776,42.5486489 56.9064566,42.5480043 C56.8529916,42.5461041 56.799476,42.5461041 56.746011,42.5480043 L49.07228,27.5297451 C49.0737589,27.5297466 49.0752379,27.5297466 49.0767168,27.5297451 L49.0766855,27.5319635 Z M47.3800408,27.9470943 L55.2258153,43.3012146 C54.8545586,43.7147736 54.6488183,44.2506984 54.6479581,44.8064518 C54.648202,45.3083646 54.8156286,45.7958963 55.1237999,46.1920615 L44.1329008,63.727923 C44.0887894,63.7266299 44.0446495,63.7266299 44.0005381,63.727923 C43.7026914,63.728604 43.407921,63.7881919 43.1331969,63.9032563 L30.7764891,47.9124806 C31.1370981,47.5011423 31.3361603,46.9729039 31.3367029,46.4258776 C31.3363415,45.9092253 31.1588528,45.408315 30.8338413,45.0066966 L47.3800112,27.9537494 L47.3800408,27.9470943 Z M120.222305,37.5871234 L140.412646,51.0179013 L114.459142,52.6813494 L120.222305,37.5871234 L120.222305,37.5871234 Z M9.94381091,37.6462799 L26.1690847,45.6767919 L3.65628268,57.5537914 C3.44146773,57.3835248 3.19745181,57.2537852 2.93616824,57.1709174 L8.12420987,38.5947065 C8.84763891,38.5882442 9.5241878,38.2356081 9.94381091,37.6462799 L9.94381091,37.6462799 Z M70.9057548,37.9958948 C71.3218705,38.3802332 71.8672176,38.5941738 72.4336688,38.5952981 C72.4470773,38.5954175 72.4604867,38.5954175 72.4738952,38.5952981 L83.9345857,55.4402609 C83.9031904,55.5909555 83.8872834,55.744465 83.8871126,55.8983952 C83.8878785,56.0811406 83.9108215,56.2631177 83.9554384,56.4403345 L76.2546877,68.1592383 C76.0668833,68.1606586 75.8799893,68.1854989 75.6983339,68.2331839 L58.8135949,46.0120778 C59.0419377,45.6520373 59.1637075,45.2347175 59.1648235,44.8083744 C59.1637982,44.7211854 59.1577245,44.6341289 59.1466329,44.5476421 L70.9056365,37.9981132 L70.9057548,37.9958948 Z M57.437447,46.9985126 L74.3392822,69.241638 C74.3233593,69.266529 74.3079263,69.2917302 74.2929923,69.3172269 L46.1796929,65.3890706 C46.0856287,65.044576 45.9112158,64.7272966 45.6707678,64.4632713 L56.5916404,47.0405301 C56.6958737,47.0562478 56.8010795,47.0646488 56.9064861,47.0656716 C57.0854949,47.0646098 57.2637427,47.0422694 57.4374766,46.9991206 L57.437447,46.9985126 Z M26.8765258,47.2185748 L18.6403759,65.2043708 C18.2713121,65.2982629 17.9319822,65.4839525 17.6539379,65.7441739 L4.51480889,59.2532264 C4.51182275,59.1773424 4.5050111,59.1016574 4.49439989,59.0264598 L26.8765258,47.2185748 L26.8765258,47.2185748 Z M28.015144,48.800354 L32.1715375,76.684348 L21.2203472,68.38962 C21.3743906,68.0792234 21.4549449,67.7375433 21.4557753,67.3910253 C21.4547065,66.6079048 21.0480355,65.8812303 20.3811202,65.4707394 L28.015144,48.800354 L28.015144,48.800354 Z M29.8242731,49.4438453 L41.9207071,65.0983821 C41.8026896,65.377194 41.7419347,65.6768887 41.7420545,65.9796497 C41.7435399,67.0932044 42.5564441,68.0394954 43.6570442,68.208864 L51.4493264,90.4962418 C51.2684703,90.6131319 51.1052611,90.7552869 50.9646556,90.9183891 L34.1019671,78.1466639 L29.8242731,49.4438453 L29.8242731,49.4438453 Z M140.951903,52.6810208 L136.029624,65.1309181 L115.015511,54.6235725 C115.01889,54.577633 115.020863,54.5316008 115.021426,54.4855407 C115.021423,54.4383998 115.019943,54.3912706 115.01699,54.3442223 L140.951741,52.6822532 L140.951903,52.6810208 Z M142.328184,53.8066376 L144.508389,68.056536 C144.144529,68.2650639 143.845916,68.5707836 143.646002,68.9394468 L137.550363,65.8912436 L142.328184,53.8066376 L142.328184,53.8066376 Z M110.401998,55.3410095 L107.400226,74.5221777 L88.1930095,56.8452279 C88.1969972,56.8375822 88.200941,56.8299136 88.2048408,56.8222226 L110.40225,55.3421597 L110.401998,55.3410095 Z M111.92274,56.5800096 C112.189982,56.6879359 112.475411,56.7437139 112.763623,56.7443332 C112.985262,56.7437344 113.205606,56.7105136 113.41757,56.6457391 L125.720786,72.9073694 L109.708357,75.4624375 C109.514511,75.271401 109.287732,75.1169742 109.038955,75.0066038 L111.92274,56.5806669 L111.92274,56.5800096 Z M115.706401,56.8628106 L135.404336,66.7117114 L133.442479,71.6742849 L127.615368,72.6038637 L115.706401,56.8628106 L115.706401,56.8628106 Z M86.952938,58.0051884 L106.269874,75.7843475 C106.007968,76.1620673 105.867545,76.6107067 105.867358,77.0703442 C105.867992,77.0933632 105.868978,77.1163712 105.870316,77.1393601 L90.4721404,86.4770502 C90.1986163,86.2333215 89.8699067,86.059791 89.5143637,85.9714264 L86.4590387,58.130403 C86.6281608,58.1070566 86.7940904,58.064609 86.9536478,58.0038738 L86.952938,58.0051884 Z M84.7705296,58.283717 L87.7469399,85.4007304 L78.1604343,71.6396127 C78.3966051,71.2749341 78.5225762,70.8498745 78.5232428,70.4154016 C78.5225242,69.8126783 78.2809214,69.235246 77.8521993,68.8116031 L84.7705296,58.283717 L84.7705296,58.283717 Z M3.92094971,60.849959 L16.9442948,67.2825717 C16.9414538,67.3186703 16.9394814,67.3548319 16.9383792,67.3910253 C16.9394767,67.9297165 17.1330836,68.4502753 17.4842622,68.8587639 L11.6047678,80.4623125 C11.5599509,80.4664536 11.5152678,80.4719335 11.4707783,80.4787448 L3.52906678,61.1915879 C3.67213297,61.093973 3.80349597,60.9802255 3.92056569,60.8525882 L3.92094971,60.849959 Z M45.9773037,67.0702656 L73.8259352,70.961942 L62.9359292,82.6188958 C62.6843474,82.5242564 62.4178917,82.4752867 62.1491,82.474291 C61.5998483,82.4753088 61.0697905,82.6764455 60.6581293,83.0400572 L45.9734437,67.0761812 C45.9749226,67.0761827 45.9764015,67.0761827 45.9778805,67.0761812 L45.9773037,67.0702656 Z M136.925077,67.4720369 L142.453345,70.2362889 L135.386693,71.3638776 L136.925077,67.4720369 L136.925077,67.4720369 Z M45.9039792,69.5024196 L59.8916959,84.7097496 C59.8912822,84.717416 59.8909075,84.7250846 59.890572,84.7327549 C59.8916935,84.9789348 59.9330571,85.2232753 60.0130259,85.4561075 L54.0888684,90.6398606 C53.8114084,90.4153709 53.4846957,90.2598334 53.1355136,90.1859987 L45.9040088,69.5020909 L45.9039792,69.5024196 Z M19.9179543,69.5287114 L32.5288428,79.0798578 L33.6095763,86.3301449 C33.419898,86.4663553 33.2524916,86.6311585 33.1133255,86.818679 L13.9766989,82.4544078 C13.9117246,81.8989001 13.6429424,81.3872597 13.2223926,81.018548 L18.9877446,69.6389725 C19.0572958,69.6476986 19.1272156,69.653182 19.1972769,69.6554049 C19.4425114,69.6542675 19.6859236,69.6131967 19.9179543,69.5338054 L19.9179543,69.5287114 Z M144.120202,71.6862806 C144.142922,71.7081253 144.166097,71.7294921 144.189711,71.7503668 L136.416167,83.4894823 C136.247215,83.5002851 136.080013,83.5300503 135.917713,83.5782171 L132.397624,78.9255579 L134.662748,73.1959217 L144.120232,71.6869379 L144.120202,71.6862806 Z M74.7379396,72.4674751 L72.5323714,85.9965679 C72.1736178,86.1991484 71.8771122,86.4960029 71.6749537,86.8549945 L64.3789223,84.3792948 C64.344518,84.1654259 64.2795245,83.9576189 64.185939,83.7622595 L74.7379396,72.4674751 L74.7379396,72.4674751 Z M76.7742314,72.6137231 L86.8266684,87.0438024 L75.8407236,87.4506677 C75.6571999,86.6582874 75.0617897,86.0257898 74.28193,85.7947785 L76.4213464,72.6689359 C76.5402214,72.6602006 76.6582183,72.6420683 76.7742314,72.6147091 L76.7742314,72.6137231 Z M132.718504,73.5055074 L131.201077,77.3436144 L128.773848,74.1351956 L132.718504,73.5055074 L132.718504,73.5055074 Z M126.878704,74.4377154 L130.472133,79.1874898 L128.990538,82.935876 C128.827222,82.898292 128.66023,82.8790022 128.492646,82.8783628 C127.832797,82.8786977 127.206094,83.1675836 126.777265,83.669088 L111.772216,76.848343 L126.878704,74.4382083 L126.878704,74.4377154 Z M110.792936,78.2638267 L126.239102,85.2848823 C126.282984,85.9372108 126.607397,86.5385139 127.128494,86.9333769 L123.328298,92.9617534 C122.950026,92.6987881 122.500382,92.5577927 122.039687,92.5576816 C121.92073,92.5581743 121.801998,92.5680645 121.6846,92.5872599 L110.792936,78.2643197 L110.792936,78.2638267 Z M106.565406,78.6996129 C106.829369,78.9527431 107.150854,79.1379854 107.502227,79.2394161 L108.657394,91.9523134 C108.047562,92.3733008 107.683044,93.0666622 107.681974,93.8076915 C107.682534,94.1729036 107.771651,94.5325326 107.941687,94.8557476 L105.636321,98.3136096 C105.290625,98.1103648 104.897047,98.0028288 104.496031,98.002052 C104.041702,98.0028917 103.598187,98.1407362 103.223424,98.397579 L91.0905789,88.9274441 C91.1801602,88.6819238 91.2264469,88.422718 91.2273784,88.1613673 C91.2272453,88.1087309 91.2252723,88.0561152 91.2214627,88.0036167 L106.565066,78.7001059 L106.565406,78.6996129 Z M109.246284,79.0287532 L120.228369,93.471321 C120.111928,93.6280035 120.016293,93.7991213 119.943854,93.9803956 L112.16095,93.3991829 C111.989048,92.4698164 111.256641,91.7457729 110.325361,91.5845571 L109.186728,79.0624395 C109.206769,79.0512404 109.226638,79.0397365 109.246328,79.0279315 L109.246284,79.0287532 Z M34.4587121,80.5423381 L48.1624776,90.9211826 L37.1622022,87.8659135 C37.0296297,86.8701483 36.2552994,86.0816307 35.2621051,85.9310028 L34.4587121,80.5423381 L34.4587121,80.5423381 Z M131.66865,80.768776 L134.592692,84.6331748 C134.538439,84.7302504 134.491429,84.8312006 134.452048,84.9352016 L130.740616,84.9352016 C130.709189,84.5850914 130.596473,84.2471501 130.411438,83.9482739 L131.668606,80.768776 L131.66865,80.768776 Z M86.7869596,88.7402795 C87.0202639,89.616295 87.7547586,90.2679171 88.6523318,90.3951827 L89.5174694,103.653963 L75.5369106,89.1864181 C75.5432552,89.1760616 75.5495161,89.1656541 75.5556928,89.1551966 L86.787004,88.7394579 L86.7869596,88.7402795 Z M90.3566801,90.5036363 L102.282743,99.8119125 C102.252711,99.9596707 102.23755,100.110065 102.237489,100.260845 C102.237544,100.314577 102.239517,100.36829 102.243404,100.421882 L92.6651674,104.19886 C92.2875708,103.776972 91.7652862,103.512297 91.2017784,103.457268 L90.357035,90.5033077 L90.3566801,90.5036363 Z M102.995699,101.946312 C103.079128,102.020659 103.167959,102.088712 103.261461,102.149909 L101.714262,106.275911 C101.043494,106.32437 100.429215,106.669234 100.038576,107.216664 L93.2255734,105.977664 C93.2325199,105.916468 93.2369603,105.855015 93.2388836,105.793457 L102.995211,101.946312 L102.995699,101.946312 Z M104.959199,102.468533 L108.490869,109.923895 L104.120534,108.308923 C104.063677,107.721116 103.778849,107.17896 103.327081,106.798624 L104.950385,102.470669 C104.953342,102.470675 104.9563,102.470675 104.959258,102.470669 L104.959199,102.468533 Z" id="Shape-Copy-26" fill="#ff7300"></path>
            <path d="M29.255004,38 C15.0320016,38 5,48.0650016 5,61.9580039 C5,75.8510062 15.0320016,85.9160079 29.255004,85.9160079 C37.7030054,85.9160079 44.6660065,82.1540072 48.7580072,76.1480063 L41.2340059,70.7360054 C38.4620055,74.762006 34.3040048,77.0720064 29.189004,77.0720064 C21.0380026,77.0720064 14.6360016,71.2310054 14.6030016,61.9580039 C14.6030016,52.9820025 20.8070026,46.8440014 29.189004,46.8440014 C34.3370048,46.8440014 38.5280055,49.2200018 41.1350059,53.2130025 L49.0550072,48.3620017 C45.2930066,41.8940006 37.7690054,38 29.255004,38 L29.255004,38 Z M59.974334,38.8580001 L59.974334,85.0580077 L69.1813355,85.0580077 L69.1813355,66.6770047 L71.887336,66.6770047 L85.3513382,85.0580077 L96.50534,85.0580077 L82.2823377,66.5450047 C91.1593391,65.6870045 96.43934,60.5060037 96.43934,52.9160024 C96.43934,44.072001 90.532339,38.8580001 79.5103372,38.8580001 L59.974334,38.8580001 Z M79.3453372,47.3390015 C84.229338,47.3390015 86.9683384,49.0880018 86.9683384,52.9160024 C86.9683384,56.8100031 84.361338,58.6580034 79.3453372,58.6580034 L69.1813355,58.6580034 L69.1813355,47.3390015 L79.3453372,47.3390015 Z M144.277837,47.8512205 L143.17774,44.0582517 L133.296672,70.0430053 L121.28467,38.8580001 L107.787668,38.8580001 L107.787668,85.0580077 L116.994669,85.0580077 L116.994669,50.441002 L128.412671,80.603007 L138.147673,80.603007 L144.277837,64.2521003 L144.277837,47.8512205 Z" id="CRM-Copy-21" fill="#ffffff"></path>
            <path d="M209.798007,38 L200.558005,38 L200.558005,65.2910045 C200.558005,72.8810057 196.268004,76.2140063 189.899003,76.2140063 C183.530002,76.2140063 179.240002,72.8810057 179.240002,65.2910045 L179.240002,38 L170,38 L170,65.7530045 C170,78.5240066 178.151001,85.0250077 189.899003,85.0250077 C201.647005,85.0250077 209.798007,78.5240066 209.798007,65.7530045 L209.798007,38 Z M271.682342,38 L258.18534,38 L246.206338,69.1850051 L234.194336,38 L220.697334,38 L220.697334,84.2000076 L229.904335,84.2000076 L229.904335,49.5830019 L241.322337,79.7450068 L251.057339,79.7450068 L262.475341,49.3190019 L262.475341,84.2000076 L271.682342,84.2000076 L271.682342,38 Z" id="UM-Copy-26" fill="#ffffff"></path>
            <path d="M158.834002,53.0050026 L150.221,53.0050026 L150.221,84.9820079 L158.834002,84.9820079 L158.834002,53.0050026 Z M154.478001,37 C151.376,37 149,39.4420004 149,42.5440009 C149,45.6460014 151.376,48.0220018 154.478001,48.0220018 C157.580001,48.0220018 159.989002,45.6460014 159.989002,42.5440009 C159.989002,39.4420004 157.580001,37 154.478001,37 L154.478001,37 Z" id="i-copy-22" fill="#ffffff"></path>
        </g>
    </g>
</svg>